<?xml version="1.0" encoding="UTF-8"?>
<svg version="1.1" xmlns="http://www.w3.org/2000/svg" width="512" height="512">
<path d="M0 0 C0.90177475 -0.00705963 1.8035495 -0.01411926 2.73265076 -0.02139282 C39.9155403 -0.24635257 39.9155403 -0.24635257 57.3046875 3.203125 C58.3153125 3.39116699 59.3259375 3.57920898 60.3671875 3.77294922 C112.45140848 13.60916703 162.4170239 37.42887388 203.3046875 71.203125 C203.82595215 71.63109375 204.3472168 72.0590625 204.88427734 72.5 C216.8128018 82.32224552 228.02209116 92.82674113 238.9921875 103.703125 C240.31089844 105.0022583 240.31089844 105.0022583 241.65625 106.32763672 C247.64237002 112.30588026 253.02663293 118.59775491 258.3046875 125.203125 C259.17983448 126.24237127 260.05994612 127.2775024 260.94921875 128.3046875 C296.99350056 170.25893263 321.10908905 223.07299355 331.3046875 277.203125 C331.48257812 278.09692871 331.66046875 278.99073242 331.84375 279.91162109 C341.73203956 331.2071232 332.90408922 388.55521649 304.3046875 432.515625 C298.00713475 441.68574567 290.88515648 450.07390153 283.3046875 458.203125 C282.58023437 458.99332031 281.85578125 459.78351563 281.109375 460.59765625 C251.75625491 491.39355682 206.28624002 510.38340382 163.97232056 512.3092804 C161.5176057 512.36638116 159.06471763 512.39343174 156.609375 512.40625 C155.70760025 512.41330963 154.8058255 512.42036926 153.87672424 512.42764282 C116.6938347 512.65260257 116.6938347 512.65260257 99.3046875 509.203125 C98.2940625 509.01508301 97.2834375 508.82704102 96.2421875 508.63330078 C44.15796652 498.79708297 -5.8076489 474.97737612 -46.6953125 441.203125 C-47.21657715 440.77515625 -47.7378418 440.3471875 -48.27490234 439.90625 C-60.2034268 430.08400448 -71.41271616 419.57950887 -82.3828125 408.703125 C-83.26195313 407.83703613 -84.14109375 406.97094727 -85.046875 406.07861328 C-91.03299502 400.10036974 -96.41725793 393.80849509 -101.6953125 387.203125 C-102.57045948 386.16387873 -103.45057112 385.1287476 -104.33984375 384.1015625 C-140.38412556 342.14731737 -164.49971405 289.33325645 -174.6953125 235.203125 C-174.96214844 233.86241943 -174.96214844 233.86241943 -175.234375 232.49462891 C-177.93998115 218.459297 -178.00137091 204.32113017 -178.0703125 190.078125 C-178.08236725 188.69151169 -178.08236725 188.69151169 -178.09466553 187.27688599 C-178.38481367 143.24031106 -165.17807243 97.69679043 -135.6953125 64.203125 C-134.96570313 63.36394531 -134.23609375 62.52476563 -133.484375 61.66015625 C-131.25670694 59.13937397 -128.98825095 56.66460423 -126.6953125 54.203125 C-125.97214844 53.41421875 -125.24898437 52.6253125 -124.50390625 51.8125 C-93.23759862 19.01197422 -44.95381587 0.23468408 0 0 Z M-5.5234375 128.96875 C-14.45006543 145.98885392 -10.2662441 170.46139666 -4.99609375 188 C8.74218567 231.75279182 37.39983412 270.802196 73.3046875 299.203125 C74.35272925 300.06368519 75.39956647 300.92571403 76.4453125 301.7890625 C85.85232675 309.47560347 95.86816279 316.00145868 106.3046875 322.203125 C106.99900879 322.61836426 107.69333008 323.03360352 108.40869141 323.46142578 C124.73978523 333.07752307 143.53300616 340.33878125 162.3046875 343.203125 C163.38621094 343.38230469 164.46773437 343.56148437 165.58203125 343.74609375 C178.51684447 345.33410335 193.18004562 345.55268254 205.3046875 340.203125 C213.90211769 329.40122553 212.29150715 310.88881497 210.90625 297.984375 C204.03497554 247.25585813 167.46801435 199.18152375 128.3046875 168.203125 C127.25664575 167.34256481 126.20980853 166.48053597 125.1640625 165.6171875 C100.84627207 145.74921871 25.52999217 98.97697604 -5.5234375 128.96875 Z " fill="#080806" transform="translate(177.6953125,-0.203125)"/>
<path d="M0 0 C0.25990723 0.5261792 0.51981445 1.0523584 0.78759766 1.59448242 C17.85309094 35.84752387 41.67684129 67.34541976 72 91 C72.98355469 91.78890625 73.96710938 92.5778125 74.98046875 93.390625 C90.66872362 105.86862781 108.60679718 117.99828134 127.59765625 124.70703125 C128.29358887 124.95412842 128.98952148 125.20122559 129.70654297 125.45581055 C131.54486936 126.07681777 133.40288768 126.63867893 135.26171875 127.1953125 C138.26761288 129.17637254 138.51906707 129.56940585 139.375 132.875 C144.38814406 164.8624054 136.67643172 198.05656366 117.6875 224.1875 C101.4722349 244.83014124 81.66204732 258.92088316 58 270 C56.86691406 270.54269531 55.73382813 271.08539063 54.56640625 271.64453125 C53.53386719 272.11246094 52.50132812 272.58039063 51.4375 273.0625 C50.54933594 273.46597656 49.66117188 273.86945313 48.74609375 274.28515625 C41.64148956 276.13457669 35.32111316 272.6849034 29 269.75 C27.56346069 269.08726074 27.56346069 269.08726074 26.09790039 268.41113281 C2.9620727 257.52944317 -18.89151962 243.7797846 -39 228 C-39.85464844 227.33742188 -40.70929688 226.67484375 -41.58984375 225.9921875 C-46.70199317 221.97493603 -51.58693132 217.76040369 -56.3828125 213.37109375 C-57.81446173 212.07406228 -59.25233318 210.78334559 -60.71801758 209.52490234 C-66.54690283 204.51778471 -72.00340895 199.18017318 -77.4375 193.75 C-78.32759766 192.87214844 -79.21769531 191.99429688 -80.13476562 191.08984375 C-86.19726725 185.04062737 -91.65712692 178.68656124 -97 172 C-98.55950185 170.1849197 -100.12133812 168.37183674 -101.6875 166.5625 C-108.14555789 158.83301197 -113.78883325 150.54399988 -119.44677734 142.22021484 C-120.7470078 140.3616333 -122.08902413 138.59015347 -123.51953125 136.83203125 C-127.53659648 131.59479236 -128.40795663 128.17496417 -127.75 121.5625 C-127.26756345 118.68306469 -126.64549951 115.84673924 -126 113 C-125.83918945 112.22446777 -125.67837891 111.44893555 -125.51269531 110.64990234 C-119.70686387 82.8279538 -107.5618133 58.70854029 -88 38 C-87.31421875 37.24976563 -86.6284375 36.49953125 -85.921875 35.7265625 C-65.04513273 13.69000122 -30.46936292 -1.7427501 0 0 Z " fill="#FEE161" transform="translate(177,212)"/>
<path d="M0 0 C0.72348633 0.17660156 1.44697266 0.35320312 2.19238281 0.53515625 C23.44095432 5.80097939 44.22960931 15.86560568 61 30 C60.37879939 33.33053342 59.1565553 35.45076238 57.1875 38.1875 C44.79623071 56.44831791 44.97051977 79.06274927 48.8671875 100.08984375 C50.60823604 108.28686131 53.50937589 116.18439119 56.4050293 124.03320312 C57 126 57 126 57 129 C56.33170166 129.12528076 55.66340332 129.25056152 54.97485352 129.37963867 C34.95573876 133.16638895 16.92660206 137.16446376 -1 147 C-2.62421875 147.86818359 -2.62421875 147.86818359 -4.28125 148.75390625 C-11.52419505 152.77672754 -17.74134185 157.59391448 -24 163 C-24.70898438 163.57492188 -25.41796875 164.14984375 -26.1484375 164.7421875 C-51.78986845 185.92423915 -67.53659503 223.5259233 -71 256 C-75.6447335 251.90831384 -77.84957155 245.88836044 -80.5625 240.4375 C-80.8723584 239.81763214 -81.1822168 239.19776428 -81.50146484 238.55911255 C-87.89891331 225.70303445 -93.22906301 212.54625753 -98 199 C-98.30373535 198.15179688 -98.6074707 197.30359375 -98.92041016 196.4296875 C-103.38446207 183.8204736 -106.04602378 170.95837498 -108.46679688 157.81982422 C-108.96522691 155.18389614 -109.51758542 152.56466944 -110.078125 149.94140625 C-115.05464657 124.69200301 -114.66241077 93.05095294 -109 68 C-108.80132324 67.11376953 -108.60264648 66.22753906 -108.39794922 65.31445312 C-104.51812681 48.65591974 -98.69862834 32.65265888 -90.75 17.5 C-90.43305176 16.89486572 -90.11610352 16.28973145 -89.78955078 15.66625977 C-84.86064522 6.67133054 -77.32015646 4.03636487 -68 1 C-45.35040931 -5.52438997 -22.83363038 -5.83150645 0 0 Z " fill="#9CCCFE" transform="translate(117,78)"/>
<path d="M0 0 C6.00051652 2.12716723 10.19949162 5.91588548 15 10 C16.43279297 11.21042969 16.43279297 11.21042969 17.89453125 12.4453125 C38.11882374 30.20452085 54.36975197 55.1209975 56.16845703 82.57080078 C56.66981819 94.36642344 56.19716397 105.57956276 53 117 C52.75636719 117.93070312 52.51273438 118.86140625 52.26171875 119.8203125 C47.04681212 135.98405155 23.97926262 147.11266346 9.75390625 154.65234375 C-44.46141596 182.16038845 -109.96895223 179.14941585 -166.4375 160.75 C-167.19554932 160.5039502 -167.95359863 160.25790039 -168.73461914 160.00439453 C-173.87452045 158.2509591 -173.87452045 158.2509591 -175 156 C-173.34677734 155.30777344 -173.34677734 155.30777344 -171.66015625 154.6015625 C-135.43953862 139.15033093 -105.76103008 114.88497705 -90.5 77.85546875 C-88.31269598 72.34186886 -86.4154597 66.76246391 -85 61 C-84.82049805 60.30495361 -84.64099609 59.60990723 -84.45605469 58.89379883 C-82.28849054 49.15600734 -82.78230014 39.22701255 -82.875 29.3125 C-82.88505016 27.43555165 -82.89417241 25.55859809 -82.90234375 23.68164062 C-82.92419531 19.12096327 -82.9586129 14.5605402 -83 10 C-81.7934375 10.27714844 -80.586875 10.55429687 -79.34375 10.83984375 C-77.72921237 11.20593077 -76.11462643 11.57180483 -74.5 11.9375 C-73.70851563 12.11990234 -72.91703125 12.30230469 -72.1015625 12.49023438 C-48.96101084 17.70634233 -25.5751657 16.41041741 -5 4 C-3.30688341 2.70041862 -1.63072616 1.37705764 0 0 Z " fill="#9CCCFE" transform="translate(403,333)"/>
<path d="M0 0 C2.86048501 0.01074361 5.72034411 0.00002331 8.58081055 -0.01269531 C19.49150184 -0.02187494 30.01679466 0.53158466 40.79760742 2.26074219 C41.90305908 2.43766602 43.00851074 2.61458984 44.14746094 2.796875 C57.73542279 5.100447 71.077301 7.97239477 84.13891602 12.39208984 C87.13775082 13.37187444 90.16185259 14.23877407 93.19213867 15.11621094 C110.18111943 20.33495751 110.18111943 20.33495751 113.28588867 25.54199219 C114.39423069 28.75378207 115.10869467 31.73610384 115.50854492 35.10742188 C115.82442677 37.46052819 116.33207679 39.71152209 116.89135742 42.01855469 C117.95653478 46.41440519 118.94665336 50.81807872 119.79760742 55.26074219 C119.97557861 56.17637939 120.1535498 57.0920166 120.33691406 58.03540039 C121.16729237 63.84892864 120.98353443 69.71860006 120.98291016 75.58056641 C120.98508123 77.85826752 121.00322434 80.13547127 121.0222168 82.41308594 C121.06786323 93.76842972 120.31485465 104.5825294 116.11010742 115.26074219 C115.72145508 116.26802368 115.72145508 116.26802368 115.32495117 117.2956543 C111.59634621 126.63603166 106.6597677 134.89647262 99.79760742 142.26074219 C96.87598632 141.64391958 94.60537093 140.72643545 92.03198242 139.22167969 C91.31550537 138.80958252 90.59902832 138.39748535 89.86083984 137.97290039 C89.09747314 137.53163818 88.33410645 137.09037598 87.54760742 136.63574219 C57.92588194 119.92047677 22.95616504 108.33991723 -11.20239258 116.26074219 C-7.19656701 105.50537491 2.62416797 98.73995805 12.66479492 93.87011719 C39.05034621 83.62181611 69.70028381 90.27355281 94.79150391 101.1796875 C96.80455223 102.08278032 98.80548107 103.00875663 100.80541992 103.94042969 C103.5574819 105.39530853 103.5574819 105.39530853 105.79760742 105.26074219 C105.79760742 104.27074219 105.79760742 103.28074219 105.79760742 102.26074219 C78.48270545 90.41154359 44.54916877 77.93486372 14.79760742 89.26074219 C9.0716451 91.70269671 3.75176127 94.4141119 -1.20239258 98.19824219 C-4.20239258 100.26074219 -4.20239258 100.26074219 -6.10083008 100.10449219 C-8.73380731 99.04738609 -10.59770245 97.58221996 -12.82739258 95.82324219 C-31.0414991 82.34913432 -52.94865507 72.53213825 -75.20239258 68.26074219 C-76.32516602 68.03773437 -77.44793945 67.81472656 -78.60473633 67.58496094 C-99.83816008 64.07392236 -121.33032617 65.36537048 -141.67114258 72.13964844 C-144.52637882 73.04612278 -147.25586051 73.75643189 -150.20239258 74.26074219 C-144.98816959 65.0986075 -137.49586649 57.7662944 -130.20239258 50.26074219 C-129.34701904 49.37032227 -129.34701904 49.37032227 -128.47436523 48.46191406 C-108.61089853 28.11041527 -81.60760595 13.97502341 -54.26391602 6.80322266 C-51.64738071 6.11469335 -49.0434604 5.38313176 -46.43920898 4.6496582 C-31.057776 0.6859425 -15.80890603 -0.07044846 0 0 Z " fill="#FDE061" transform="translate(187.202392578125,4.7392578125)"/>
<path d="M0 0 C47.81894433 14.01316746 99.21297359 59.53772964 129 98 C130.60078117 99.87789119 132.20516285 101.75271717 133.8125 103.625 C147.6551259 120.24898814 159.19489383 138.84227575 169.625 157.75 C170.13417969 158.66676514 170.64335937 159.58353027 171.16796875 160.52807617 C173.75455384 165.29819368 175.77101654 169.70814179 177 175 C175.86304688 174.73445312 174.72609375 174.46890625 173.5546875 174.1953125 C148.852615 168.50455742 124.38344749 165.35225256 100.63671875 176.20703125 C98 177 98 177 95.75390625 176.29296875 C93.38500641 174.54663056 92.30604514 172.61209029 91 170 C91 169.34 91 168.68 91 168 C89.68 168 88.36 168 87 168 C87.45375 169.051875 87.9075 170.10375 88.375 171.1875 C89.63382339 174.1056815 90.82671986 177.04639478 92 180 C91.34515625 180.37769531 90.6903125 180.75539062 90.015625 181.14453125 C80.47107184 186.90092136 72.81038565 194.11575728 65 202 C64.32195312 200.99582031 63.64390625 199.99164063 62.9453125 198.95703125 C46.59733266 174.87493738 28.23747312 151.81872045 5 134 C3.87045595 133.11539713 2.74158454 132.22993491 1.61328125 131.34375 C0.45120166 130.43662715 -0.71154844 129.53036253 -1.875 128.625 C-2.41084717 128.20750488 -2.94669434 127.79000977 -3.4987793 127.35986328 C-6.554008 125.01175247 -9.65529296 122.91302432 -13 121 C-11.55434018 117.88191019 -9.79193651 115.25937366 -7.75 112.5 C4.20524252 95.50966571 9.42082964 76.17339245 9.3125 55.5625 C9.30758545 54.43650391 9.3026709 53.31050781 9.29760742 52.15039062 C9.04904527 34.09075661 5.70086854 17.10260562 0 0 Z " fill="#9CCCFD" transform="translate(303,30)"/>
<path d="M0 0 C3.79973473 0.97543429 3.79973473 0.97543429 7.6328125 1.296875 C11.78051838 2.05424342 14.86052916 2.88650042 17.83203125 5.8984375 C22.70538943 13.83397617 25.17356111 23.04455497 27.83203125 31.8984375 C28.17347168 32.99559082 28.51491211 34.09274414 28.86669922 35.22314453 C33.19925103 49.23520955 36.56089528 63.40822541 38.83203125 77.8984375 C39.09693359 79.46646118 39.09693359 79.46646118 39.3671875 81.06616211 C41.11689015 92.44001044 41.23220886 103.7238866 41.20703125 115.2109375 C41.20521851 116.73853699 41.20521851 116.73853699 41.20336914 118.29699707 C41.06177668 162.29253641 29.41033387 206.22193632 -0.16796875 239.8984375 C-1.17124537 241.12493117 -2.17186323 242.35361267 -3.16796875 243.5859375 C-3.82796875 244.3490625 -4.48796875 245.1121875 -5.16796875 245.8984375 C-5.49796875 245.8984375 -5.82796875 245.8984375 -6.16796875 245.8984375 C-6.02412953 244.37741427 -5.87777861 242.85662853 -5.73046875 241.3359375 C-5.64925781 240.48902344 -5.56804687 239.64210938 -5.484375 238.76953125 C-5.25960599 236.7299606 -4.97159566 234.69692511 -4.640625 232.671875 C-4.07006509 228.1168265 -4.02211293 223.67074214 -4.04296875 219.0859375 C-4.03910156 218.24740234 -4.03523438 217.40886719 -4.03125 216.54492188 C-4.07745434 186.48899886 -18.37355771 162.25049611 -38.66796875 141.0234375 C-44.90119774 135.01034114 -51.96889556 129.69781962 -59.16796875 124.8984375 C-57.75206478 121.9391311 -56.12102717 119.22340754 -54.35546875 116.4609375 C-41.96855091 96.02859509 -42.72109155 70.77339224 -48.0625 48.1015625 C-51.84956264 33.43743851 -58.25555481 19.33924238 -65.16796875 5.8984375 C-46.49759697 -4.51388522 -20.48890109 -4.82873832 0 0 Z " fill="#FDE061" transform="translate(466.16796875,205.1015625)"/>
<path d="M0 0 C2.75206198 1.45487884 2.75206198 1.45487884 4.9921875 1.3203125 C5.6521875 0.6603125 6.3121875 0.0003125 6.9921875 -0.6796875 C7.5490625 -0.0815625 8.1059375 0.5165625 8.6796875 1.1328125 C10.97775179 3.3066571 13.23635299 4.78929333 15.9921875 6.3203125 C15.42426065 11.53712631 13.72033179 15.52685602 11.3671875 20.1328125 C11.01108398 20.8347876 10.65498047 21.5367627 10.28808594 22.26000977 C3.41871767 35.46083879 3.41871767 35.46083879 -1.79296875 38.2890625 C-5.35187573 38.33927636 -7.82408608 36.27533957 -10.6953125 34.3828125 C-39.80357043 16.19592463 -75.75379261 4.98059302 -110.12109375 11.8828125 C-110.74371094 12.0271875 -111.36632812 12.1715625 -112.0078125 12.3203125 C-108.00198693 1.56494522 -98.18125195 -5.20047164 -88.140625 -10.0703125 C-59.45530873 -21.21185563 -26.71797857 -12.44659088 0 0 Z " fill="#F3CE4E" transform="translate(288.0078125,108.6796875)"/>
<path d="M0 0 C14.37604741 29.23757415 27.13431239 62.17915662 17.0703125 95.03515625 C12.84259233 106.33337395 5.46488524 116.71664395 -5 123 C-5.66 123 -6.32 123 -7 123 C-6.855625 122.04222656 -6.71125 121.08445312 -6.5625 120.09765625 C-1.8713429 87.23868844 -8.6633821 55.36775038 -26.15991211 27.03417969 C-27.19488409 24.52810977 -26.98975479 23.49057831 -26 21 C-20.11049439 13.19579915 -13.10339396 7.37979066 -5 2 C-2 0 -2 0 0 0 Z " fill="#F3CE4E" transform="translate(398,213)"/>
</svg>
